<svg xmlns="http://www.w3.org/2000/svg" viewBox="0 0 1400 980" role="img" aria-labelledby="title desc">
  <title id="title">Premium K-Beauty laboratory and product visual placeholder</title>
  <desc id="desc">An abstract premium visual for YJBN company imagery, ready to replace with photography.</desc>
  <defs>
    <linearGradient id="bg" x1="0" y1="0" x2="1" y2="1"><stop offset="0" stop-color="#f7efe3"/><stop offset=".48" stop-color="#dfe9df"/><stop offset="1" stop-color="#0f332b"/></linearGradient>
    <radialGradient id="glow" cx="30%" cy="18%" r="55%"><stop offset="0" stop-color="#fff9ef" stop-opacity=".95"/><stop offset="1" stop-color="#fff9ef" stop-opacity="0"/></radialGradient>
    <filter id="blur"><feGaussianBlur stdDeviation="18"/></filter>
  </defs>
  <rect width="1400" height="980" fill="url(#bg)"/>
  <rect width="1400" height="980" fill="url(#glow)"/>
  <g opacity=".42" stroke="#ffffff" stroke-width="1"><path d="M118 210h1170M96 430h1080M214 650h930"/><path d="M330 120v730M620 60v830M920 160v700"/></g>
  <g transform="translate(250 180)"><rect x="0" y="210" width="260" height="380" rx="48" fill="#fdfaf3" opacity=".92"/><rect x="54" y="80" width="152" height="235" rx="76" fill="#163d33"/><rect x="78" y="116" width="104" height="170" rx="52" fill="#eff6f1" opacity=".9"/><rect x="44" y="338" width="172" height="54" rx="20" fill="#d4b06c" opacity=".82"/><rect x="70" y="420" width="120" height="18" rx="9" fill="#163d33" opacity=".3"/></g>
  <g transform="translate(620 260)"><rect x="0" y="130" width="330" height="430" rx="56" fill="#ffffff" opacity=".82"/><rect x="74" y="0" width="182" height="250" rx="91" fill="#f6ddbd"/><rect x="106" y="42" width="118" height="168" rx="59" fill="#ffffff" opacity=".76"/><circle cx="168" cy="345" r="80" fill="#163d33" opacity=".92"/><path d="M130 348c38-58 82-58 120 0-35 46-83 46-120 0Z" fill="#dfe9df"/></g>
  <g transform="translate(980 170)" opacity=".82"><circle cx="96" cy="96" r="96" fill="#b9985a"/><circle cx="96" cy="96" r="58" fill="#f9f2e7"/><path d="M62 104c30-54 71-54 102 0-30 34-72 34-102 0Z" fill="#163d33" opacity=".72"/></g>
  <g filter="url(#blur)" opacity=".32"><circle cx="1090" cy="780" r="150" fill="#f5d7a6"/><circle cx="280" cy="820" r="120" fill="#ffffff"/></g>
</svg>
